# xmcd
#
# Track frame offsets: 
#        150
#        17841
#        31737
#        44748
#        60663
#        74819
#        91012
#        104829
#        120614
#
# Disc length: 1835 seconds
#
# Revision: 1
# Processed by: cddbd v1.5.2PL0 Copyright (c) Steve Scherf et al.
# Submitted via: ExactAudioCopy v1.0b3
#
DISCID=7e072909
DTITLE=Ellis, Mindy - What's On My Mind
DYEAR=2002
DGENRE=Country Rock
TTITLE0=Hickory Dickory Dock
TTITLE1=What's On Your Mind
TTITLE2=Life Is Like A River
TTITLE3=Sleepless
TTITLE4=One Burger King Town
TTITLE5=My Heart Just Beats
TTITLE6=Giddy Up
TTITLE7=Good Loving Man
TTITLE8=Down Into Muddy Water
EXTD=
EXTT0=
EXTT1=
EXTT2=
EXTT3=
EXTT4=
EXTT5=
EXTT6=
EXTT7=
EXTT8=
PLAYORDER=
